PathFileType	4	(X/Y/Z)	RBDS028\RBDS028runT45.trc
DataRate	CameraRate	NumFrames	NumMarkers	Units	OrigDataRate	OrigDataStartFrame	OrigNumFrames
150.000000	150.000000	5	33	mm	150.000000	2250	4500
Frame#	Time	L.ASIS			L.Heel.Bottom			L.Heel.Lateral			L.Heel.Top			L.Iliac.Crest			L.MT1			L.MT5			L.PSIS			L.Shank.Bottom.Lateral			L.Shank.Bottom.Medial			L.Shank.Top.Lateral			L.Shank.Top.Medial			L.Thigh.Bottom.Lateral			L.Thigh.Bottom.Medial			L.Thigh.Top.Lateral			L.Thigh.Top.Medial			R.ASIS			R.ASY			R.Heel.Bottom			R.Heel.Lateral			R.Heel.Top			R.Iliac.Crest			R.MT1			R.MT5			R.PSIS			R.Shank.Bottom.Lateral			R.Shank.Bottom.Medial			R.Shank.Top.Lateral			R.Shank.Top.Medial			R.Thigh.Bottom.Lateral			R.Thigh.Bottom.Medial			R.Thigh.Top.Lateral			R.Thigh.Top.Medial			
		X1	Y1	Z1	X2	Y2	Z2	X3	Y3	Z3	X4	Y4	Z4	X5	Y5	Z5	X6	Y6	Z6	X7	Y7	Z7	X8	Y8	Z8	X9	Y9	Z9	X10	Y10	Z10	X11	Y11	Z11	X12	Y12	Z12	X13	Y13	Z13	X14	Y14	Z14	X15	Y15	Z15	X16	Y16	Z16	X17	Y17	Z17	X18	Y18	Z18	X19	Y19	Z19	X20	Y20	Z20	X21	Y21	Z21	X22	Y22	Z22	X23	Y23	Z23	X24	Y24	Z24	X25	Y25	Z25	X26	Y26	Z26	X27	Y27	Z27	X28	Y28	Z28	X29	Y29	Z29	X30	Y30	Z30	X31	Y31	Z31	X32	Y32	Z32	X33	Y33	Z33	

2251	15	1901.011134802017	841.8237628383413	885.1279900781135	1545.995365348358	60.33375485699236	1009.697744011248	1576.500373047551	72.42540014223772	964.9519099888811	1565.431337662688	101.7148583963629	1010.400543634971	1811.852291063263	869.3975421517999	875.4736975460194	1763.967951450249	33.58536409141568	1041.929150788989	1719.46056229816	35.17843856433832	934.1367369136509	1758.376554040574	843.1399495376771	986.3834949169516	1673.045398952012	160.8436631637911	941.8752602443134	1640.822950263687	188.0263943691987	971.0579982229275	1703.997179744472	227.6611149589042	908.8570711668706	1679.229068824652	258.5806022906013	944.6964591010581	1858.245351680942	502.4289779752407	850.3625957428167	1795.630545336714	499.0780304687526	886.5359277935798	1845.101554847633	611.3645674371586	839.5561596726826	1787.670289650135	607.5924638266162	878.4966946567333	1930.449106969625	834.4495233503584	1127.494386681888	1840.916578597756	214.7942027318481	1085.402591643593	1722.650173210046	357.4591310191121	1043.778724877867	1747.947403332758	342.5369995453013	1091.257936996608	1767.658029845546	364.9177722553684	1046.628260970583	1865.323033678828	880.4628495000862	1156.809975540512	1817.569204357156	157.5244941351403	1041.480338024356	1785.896872079536	200.0621373649542	1142.52228659017	1771.995975715891	838.1492182868525	1073.257054673549	1864.970877476242	356.4053290845587	1121.480954396873	1853.150949270065	390.6973576811476	1079.758640214356	1925.95843937289	405.9414290424231	1142.025680519596	1914.490656957776	437.6588944390925	1100.148395423652	2074.758807790408	555.4966472805329	1189.013257978138	2034.318881329453	513.7282466180959	1147.512818706622	1994.344349558108	631.8427574440971	1190.427071829143	1953.324281725586	588.4871439990097	1156.946590554636	
2252	15.00666666666667	1902.760851441951	842.3243840492134	884.7352730940993	1518.279398935771	69.4242444709038	1010.270524645793	1549.023174941844	79.38993931554079	965.1706029116093	1539.353012809947	109.9709202809942	1010.190915496836	1813.933990750782	872.6827404496536	875.0313440028808	1733.964804657402	33.16820084870235	1041.772426672773	1689.424170085945	35.53065178327076	934.1566066367756	1759.745183776349	845.1433385558194	984.6479008279733	1647.135398371384	167.549499198748	941.8646206621578	1616.140688696854	194.9365217408229	971.9918960647035	1679.21801607712	234.0774889504536	909.5219264781209	1655.67043981879	264.9958391772182	946.1451174952197	1843.611658818812	504.6373368267121	851.2856602093307	1781.18305229028	504.7448942417655	887.8290768511494	1836.174530699575	613.996466940695	839.9197091454763	1778.983885884124	613.4513140880714	879.3768358541902	1930.304636688207	838.118321943619	1127.553543014438	1872.328692082318	203.0197557298565	1088.017722274655	1741.637848548329	335.1079529418018	1045.107358939964	1768.126945554395	322.7779077113981	1092.66587098599	1786.002888951703	346.439660276632	1047.612188873326	1864.123339841309	883.8125862609468	1156.27204647581	1853.636206753715	143.4351906050303	1044.927927627883	1818.210590314899	184.1193746367514	1145.366783945278	1772.442474741651	840.1367661924658	1071.694442593073	1884.576274052495	346.9470290829854	1121.821068157567	1869.988663181878	379.5627354655346	1079.486600732443	1941.652638306429	401.5145418111736	1140.915436638515	1927.593239693429	431.5962317412198	1098.509517730263	2082.148340493741	564.7914126116126	1186.340608240697	2043.079728312596	521.7092010952603	1144.467009496946	1999.104268331826	638.1936785848624	1188.594091641716	1959.603382923548	593.6060889889982	1154.733305510142	
2253	15.01333333333333	1904.716776843199	842.7308267827149	884.2719426188586	1491.739200809878	79.91599384263853	1010.548889075498	1522.64415327924	87.44691181518834	965.1539826984593	1514.6647022828	119.3437064482554	1009.675851015717	1817.579337227601	876.1454877637856	874.3352673152222	1704.292054759751	32.70843791715829	1041.614644341082	1659.755477297223	36.02440058732712	934.079514336279	1761.450467261609	847.4044064665375	982.8384391909269	1622.222176532752	174.9862869942566	941.5747265247969	1592.455005124397	202.3907160982604	972.7619517394005	1655.289837653004	241.3830245890501	910.0693220278605	1632.875766402872	272.1181050302625	947.5367947669181	1828.972662233952	507.705862415565	852.1846703493607	1767.169045107104	511.3173868836391	889.5267017156409	1827.262401263882	617.2133910710933	840.273861086525	1770.685218918559	619.9303519647548	880.5424876136994	1930.61784525025	842.0455942215418	1127.274456192064	1904.626856568791	191.8625109005305	1090.415424885487	1762.338308163352	312.0443614470032	1046.525135071095	1789.78778845849	302.5408841814207	1094.116174483898	1805.67291328172	327.2517649188478	1048.654867295592	1863.851275213767	887.7306453417831	1155.597940546188	1890.908420579193	130.3331734855359	1048.177943447532	1851.898201657592	168.9448174490172	1148.109644293567	1773.292252972775	842.5386487910845	1070.212649925833	1904.637847704344	337.1624798229004	1122.106979744715	1887.423414157787	367.813975062742	1079.125191544129	1957.292573546111	396.5379139715062	1139.759477099753	1940.805551848627	424.692581989213	1096.789745729071	2088.406544574466	573.4796478004939	1183.375953123289	2050.413217308177	529.2764332629934	1141.309588179172	2003.230647516991	644.2970421491596	1186.639174575369	1965.003142632845	598.7285839133025	1152.470964667607	
2254	15.02	1906.791482127961	843.0357899517525	883.769708804077	1466.662570636327	91.81571203639588	1010.399435253419	1497.59716480996	96.61140096590204	964.7780755144349	1491.618992329772	129.7971607404804	1008.714977099314	1822.740037390253	879.6157819994398	873.4248848981441	1675.04648067086	32.33091348275769	1041.407033473335	1630.556549608378	36.75953368851565	933.860985732423	1763.412772708939	849.9348370358515	981.0456521922769	1598.583976735592	183.0595111272942	940.8922768342258	1570.004807819441	210.3125005768172	973.2068633759744	1632.55179523695	249.4637767214679	910.3935101300121	1611.143132960765	279.8588909903871	948.7220502680658	1814.663443659889	511.5744725043717	853.0259979610023	1753.859714605569	518.6345838129458	891.5086446246995	1818.571958607045	620.9624580916761	840.6102796903764	1762.94793600278	626.8799514677652	881.9353186878681	1931.391702396571	846.0735924412569	1126.595555471261	1937.671685611646	181.5572179153778	1092.430961630277	1784.837526931983	288.5315009671367	1048.177488532311	1813.045822534087	282.0470551087303	1095.702097757879	1826.719515459836	307.5660939242329	1049.875375039506	1864.460708499027	892.0598221522642	1154.819576239965	1929.171592512085	118.5573783609763	1050.993377318947	1886.950640797541	154.8141129718448	1150.611826702901	1774.513230976948	845.3485194631004	1068.891936913298	1925.191650243552	327.1158336834027	1122.389951984586	1905.50015332933	355.5711089100543	1078.792546412179	1972.961296326044	390.9603163387094	1138.67206858453	1954.221632280193	416.9569821337737	1095.160988680022	2093.617657622353	581.3254166420342	1180.178159114055	2056.32168620017	536.1616884453686	1138.232690259496	2006.807991281457	650.008536868915	1184.603758644288	1969.523226438538	603.6761080258769	1150.328459308231	
2255	15.02666666666667	1908.910018321942	843.259491227422	883.2695803628883	1443.324382336351	105.0912528620085	1009.736544759055	1474.099899942733	106.8832984970093	963.9571564262314	1470.445342065444	141.2680133694472	1007.218504671264	1829.255147775688	882.9804903787619	872.3614912981109	1646.329677917684	32.18117682298985	1041.085935928874	1601.928512978312	37.86608691819108	933.4591607717516	1765.542677479365	852.7486107062483	979.3430596614631	1576.472255033316	191.6549007967134	939.743097045623	1549.007462123453	218.6155036554958	973.2035541306188	1611.313977388985	258.1713761801927	910.4148728141021	1590.75555033118	288.1042867919804	949.5808810093034	1801.033199594827	516.1232081744516	853.7908683064359	1741.507372764518	526.4801717911969	893.637090029227	1810.326680462009	625.1507971039964	840.9278062443334	1755.930904472224	634.1144027113434	883.479719852285	1932.59308625006	850.0698837232018	1125.49257334302	1971.255686113085	172.3174449625341	1093.904481112737	1809.125204651102	264.8391405550924	1050.191858310838	1837.935839831877	261.5168508532599	1097.503202658286	1849.109529552393	287.6024348199799	1051.385184045587	1865.850316976972	896.6382789746924	1153.971912321618	1968.123956044063	108.4176534854625	1053.129144326992	1923.281089412024	141.9706751698336	1152.714375482846	1776.053633082705	848.5503779224774	1067.784774946495	1946.224577952927	316.8877244839082	1122.721474964044	1924.194103451443	342.9730902400186	1078.613348980354	1988.710565345356	384.7619425838706	1137.76760138109	1967.880759254316	408.4362684380613	1093.801108425894	2097.858002211626	588.141444764598	1176.825166966523	2060.830572767639	542.1521738587899	1135.410891995743	2009.910229926881	655.2166526604307	1182.525613172876	1973.177176635537	608.3056953198491	1148.446571359274	
